<svg width="10" height="10" viewBox="0 0 10 10" fill="none" xmlns="http://www.w3.org/2000/svg">
<path d="M9.94448 3.19591L9.09916 1.22486C8.97383 0.932613 8.91116 0.786477 8.81022 0.679212C8.72101 0.584408 8.61083 0.511801 8.48849 0.467205C8.35007 0.416748 8.19098 0.416748 7.8728 0.416748H2.12726C1.80908 0.416748 1.65 0.416748 1.51157 0.467205C1.38923 0.511801 1.27905 0.584408 1.18984 0.679212C1.0889 0.786478 1.02623 0.932604 0.900897 1.22486L0.05558 3.19591H9.94448Z" fill="white"/>
<path fill-rule="evenodd" clip-rule="evenodd" d="M0.830514 5.63366C1.05798 5.71706 1.30374 5.76258 1.56017 5.76258C1.98257 5.76258 2.37641 5.63868 2.70679 5.4258C3.03717 5.63868 3.43101 5.76258 3.85341 5.76258C4.2758 5.76258 4.66964 5.63868 5.00003 5.4258C5.33041 5.63868 5.72424 5.76258 6.14664 5.76258C6.56904 5.76258 6.96288 5.63868 7.29326 5.4258C7.62364 5.63868 8.01748 5.76258 8.43988 5.76258C8.69631 5.76258 8.94208 5.71706 9.16955 5.63366V8.25008C9.16955 8.71679 9.16955 8.95015 9.07866 9.12841C8.99871 9.28521 8.87114 9.41269 8.71423 9.49259C8.53585 9.58342 8.30233 9.58342 7.8353 9.58342H2.16476C1.69773 9.58342 1.46421 9.58342 1.28583 9.49259C1.12892 9.41269 1.00135 9.28521 0.921404 9.12841C0.830514 8.95015 0.830514 8.71679 0.830514 8.25008V5.63366ZM1.6644 7.33342C1.6644 7.10006 1.6644 6.98338 1.70984 6.89425C1.74982 6.81585 1.8136 6.75211 1.89206 6.71216C1.98125 6.66675 2.098 6.66675 2.33152 6.66675H3.91594C4.14945 6.66675 4.26621 6.66675 4.3554 6.71216C4.43385 6.75211 4.49764 6.81585 4.53761 6.89425C4.58306 6.98338 4.58306 7.10006 4.58306 7.33342V8.08342C4.58306 8.31677 4.58306 8.43345 4.53761 8.52258C4.49764 8.60098 4.43385 8.66472 4.3554 8.70467C4.26621 8.75008 4.14945 8.75008 3.91594 8.75008H2.33152C2.098 8.75008 1.98125 8.75008 1.89206 8.70467C1.8136 8.66472 1.74982 8.60098 1.70984 8.52258C1.6644 8.43345 1.6644 8.31677 1.6644 8.08342V7.33342Z" fill="white"/>
<path d="M1.56015 5.20842C0.731641 5.20842 0.0536394 4.56446 0 3.75008H10C9.94636 4.56446 9.26836 5.20842 8.43985 5.20842C7.98682 5.20842 7.57879 5.01588 7.29323 4.70822C7.00768 5.01588 6.59965 5.20842 6.14662 5.20842C5.69359 5.20842 5.28556 5.01588 5 4.70822C4.71444 5.01588 4.30641 5.20842 3.85338 5.20842C3.40035 5.20842 2.99232 5.01588 2.70677 4.70822C2.42121 5.01588 2.01318 5.20842 1.56015 5.20842Z" fill="white"/>
</svg>
