<svg width="12" height="12" viewBox="0 0 12 12" fill="none" xmlns="http://www.w3.org/2000/svg">
<path d="M9.89993 2.40015H2.09993C1.93424 2.40015 1.79993 2.53446 1.79993 2.70015V3.30015C1.79993 3.46583 1.93424 3.60015 2.09993 3.60015H9.89993C10.0656 3.60015 10.1999 3.46583 10.1999 3.30015V2.70015C10.1999 2.53446 10.0656 2.40015 9.89993 2.40015Z" fill="white"/>
<path fill-rule="evenodd" clip-rule="evenodd" d="M1.19995 2.70005C1.19995 2.20299 1.60289 1.80005 2.09995 1.80005H9.89995C10.397 1.80005 10.8 2.20299 10.8 2.70005V3.30005C10.8 3.79711 10.397 4.20005 9.89995 4.20005H2.09995C1.60289 4.20005 1.19995 3.79711 1.19995 3.30005V2.70005Z" fill="white"/>
<path fill-rule="evenodd" clip-rule="evenodd" d="M8.9999 6C9.33127 6 9.5999 6.26863 9.5999 6.6V10.2C9.5999 10.5314 9.33127 10.8 8.9999 10.8C8.66853 10.8 8.3999 10.5314 8.3999 10.2V6.6C8.3999 6.26863 8.66853 6 8.9999 6Z" fill="white"/>
<path fill-rule="evenodd" clip-rule="evenodd" d="M7.07564 8.27583C7.30995 8.04152 7.68985 8.04152 7.92417 8.27583L8.9999 9.35157L10.0756 8.27583C10.31 8.04152 10.6899 8.04152 10.9242 8.27583C11.1585 8.51015 11.1585 8.89005 10.9242 9.12436L9.42417 10.6244C9.18985 10.8587 8.80995 10.8587 8.57564 10.6244L7.07564 9.12436C6.84132 8.89005 6.84132 8.51015 7.07564 8.27583Z" fill="white"/>
<path d="M6.22733 9.97275C5.88773 9.63315 5.69993 9.18075 5.69993 8.70015C5.69993 8.21955 5.88713 7.76715 6.22733 7.42755C6.49553 7.15935 6.83333 6.98595 7.19993 6.92475V6.60015C7.19993 6.13755 7.38053 5.71935 7.66793 5.40015H1.79993V7.80015C1.79993 9.12375 2.87633 10.2001 4.19993 10.2001H6.45473L6.22733 9.97275Z" fill="white"/>
</svg>
