<svg width="13" height="13" viewBox="0 0 13 13" fill="none" xmlns="http://www.w3.org/2000/svg">
<path fill-rule="evenodd" clip-rule="evenodd" d="M7.69951 5.30049C7.93382 5.53481 7.93382 5.91471 7.69951 6.14902L5.93491 7.91362C5.70059 8.14793 5.3207 8.14793 5.08638 7.91362C4.85207 7.67931 4.85207 7.29941 5.08638 7.06509L6.85098 5.30049C7.0853 5.06618 7.46519 5.06618 7.69951 5.30049Z" fill="white"/>
<path fill-rule="evenodd" clip-rule="evenodd" d="M10.0246 2.90401C10.0246 2.90401 10.0246 2.90401 10.0246 2.90401L2.9386 5.26621C2.91971 5.2725 2.91403 5.27944 2.9114 5.28292C2.90694 5.28883 2.90179 5.29954 2.90041 5.31437C2.89904 5.3292 2.90213 5.34071 2.90545 5.34737C2.90742 5.35133 2.91174 5.35919 2.92913 5.36885L5.80204 6.96491C5.89998 7.01932 5.98073 7.10007 6.03515 7.19802L7.63115 10.0708C7.6408 10.0882 7.64873 10.0926 7.65268 10.0946C7.65935 10.0979 7.67086 10.101 7.68569 10.0996C7.70051 10.0983 7.71123 10.0931 7.71713 10.0887C7.72061 10.086 7.72755 10.0804 7.73384 10.0615L10.096 2.97547C10.1016 2.95871 10.1001 2.95002 10.0988 2.94497C10.0969 2.93756 10.0919 2.92743 10.0823 2.91777C10.0726 2.90811 10.0625 2.90314 10.0551 2.90122C10.05 2.89992 10.0413 2.89843 10.0246 2.90401ZM9.64512 1.76559C10.6272 1.43824 11.5618 2.37288 11.2345 3.35494L8.87226 10.4409C8.52649 11.4783 7.11276 11.6089 6.58216 10.6536C6.58214 10.6536 6.58218 10.6536 6.58216 10.6536L5.06941 7.93064L2.34657 6.41796C2.34654 6.41794 2.34661 6.41798 2.34657 6.41796C1.39124 5.88736 1.52179 4.47358 2.5591 4.1278C2.5591 4.1278 2.55911 4.1278 2.5591 4.1278L9.64512 1.76559Z" fill="white"/>
</svg>
