<svg width="10" height="10" viewBox="0 0 10 10" fill="currentColor" xmlns="http://www.w3.org/2000/svg">
<path d="M5 10C4.74006 10 4.5331 9.81233 4.48012 9.53309C3.98448 6.32814 3.58533 5.948 0.481275 5.5197C0.202037 5.48118 0 5.26945 0 4.99998C0 4.73047 0.206965 4.50913 0.486202 4.47542C3.59478 4.12895 4.03745 3.67658 4.48012 0.466785C4.52365 0.192471 4.73513 0 5 0C5.25994 0 5.47142 0.192471 5.51495 0.466785C6.00115 3.67658 6.4196 4.09043 9.51873 4.47542C9.79304 4.51394 10 4.73047 10 4.99998C10 5.26945 9.79304 5.48602 9.5138 5.5197C6.40522 5.87101 5.95762 6.32334 5.51495 9.53309C5.47635 9.80741 5.26487 10 5 10Z"/>
</svg>