<svg width="14" height="15" viewBox="0 0 14 15" fill="currentColor" xmlns="http://www.w3.org/2000/svg">
<path d="M1.58594 6.77051C1.58594 7.59993 1.72721 8.36328 2.00977 9.06055C2.29232 9.75326 2.6888 10.3548 3.19922 10.8652C3.71419 11.3757 4.31803 11.7721 5.01074 12.0547C5.70801 12.3372 6.46452 12.4785 7.28027 12.4785C7.88639 12.4785 8.46973 12.3919 9.03027 12.2188C9.59082 12.0501 10.1035 11.804 10.5684 11.4805C11.0378 11.1523 11.432 10.7604 11.751 10.3047C11.5505 10.373 11.3431 10.4232 11.1289 10.4551C10.9147 10.4824 10.6868 10.4961 10.4453 10.4961C9.03255 10.4961 7.81576 10.2295 6.79492 9.69629C5.77409 9.15853 4.99023 8.39062 4.44336 7.39258C3.90104 6.39453 3.62988 5.20508 3.62988 3.82422C3.62988 3.53255 3.65039 3.25456 3.69141 2.99023C3.73242 2.72135 3.78939 2.46615 3.8623 2.22461C3.3929 2.56641 2.9873 2.97884 2.64551 3.46191C2.30827 3.94499 2.04622 4.47135 1.85938 5.04102C1.67708 5.60612 1.58594 6.18262 1.58594 6.77051ZM10.7256 9.10156C10.9808 9.10156 11.2337 9.08789 11.4844 9.06055C11.735 9.02865 11.9697 8.98763 12.1885 8.9375C12.4118 8.88737 12.6055 8.82585 12.7695 8.75293C12.888 8.7028 12.9906 8.66634 13.0771 8.64355C13.1683 8.62077 13.2549 8.60938 13.3369 8.60938C13.5055 8.60938 13.6491 8.66862 13.7676 8.78711C13.8906 8.90104 13.9521 9.05599 13.9521 9.25195C13.9521 9.32031 13.943 9.40462 13.9248 9.50488C13.9066 9.60059 13.8701 9.70768 13.8154 9.82617C13.4417 10.6875 12.929 11.4303 12.2773 12.0547C11.6257 12.6836 10.8714 13.1689 10.0146 13.5107C9.15788 13.8525 8.23958 14.0234 7.25977 14.0234C6.21159 14.0234 5.24772 13.8434 4.36816 13.4834C3.49316 13.1279 2.7321 12.6266 2.08496 11.9795C1.43783 11.3278 0.936523 10.5645 0.581055 9.68945C0.225586 8.8099 0.0478516 7.84831 0.0478516 6.80469C0.0478516 5.83854 0.232422 4.91569 0.601562 4.03613C0.97526 3.15658 1.49023 2.37956 2.14648 1.70508C2.80729 1.0306 3.57064 0.520182 4.43652 0.173828C4.55046 0.123698 4.65072 0.0895182 4.7373 0.0712891C4.82389 0.0530599 4.89681 0.0439453 4.95605 0.0439453C5.16113 0.0439453 5.3252 0.112305 5.44824 0.249023C5.57129 0.381185 5.63281 0.536133 5.63281 0.713867C5.63281 0.805013 5.61914 0.896159 5.5918 0.987305C5.56445 1.07845 5.51888 1.18555 5.45508 1.30859C5.32747 1.55013 5.22721 1.87598 5.1543 2.28613C5.08594 2.69173 5.05176 3.13379 5.05176 3.6123C5.05176 4.74251 5.2819 5.72005 5.74219 6.54492C6.20247 7.36523 6.85645 7.99642 7.7041 8.43848C8.55632 8.88053 9.56348 9.10156 10.7256 9.10156Z"/>
</svg>
