<svg width="16" height="16" viewBox="0 0 16 16" fill="currentColor" xmlns="http://www.w3.org/2000/svg">
<path d="M8.76562 0.996094V2.34961C8.76562 2.55924 8.68815 2.73926 8.5332 2.88965C8.38281 3.04004 8.2028 3.11523 7.99316 3.11523C7.78809 3.11523 7.60807 3.04004 7.45312 2.88965C7.30273 2.73926 7.22754 2.55924 7.22754 2.34961V0.996094C7.22754 0.786458 7.30273 0.606445 7.45312 0.456055C7.60807 0.305664 7.78809 0.230469 7.99316 0.230469C8.2028 0.230469 8.38281 0.305664 8.5332 0.456055C8.68815 0.606445 8.76562 0.786458 8.76562 0.996094ZM8.76562 13.7246V15.0781C8.76562 15.2878 8.68815 15.4678 8.5332 15.6182C8.38281 15.7731 8.2028 15.8506 7.99316 15.8506C7.78809 15.8506 7.60807 15.7731 7.45312 15.6182C7.30273 15.4678 7.22754 15.2878 7.22754 15.0781V13.7246C7.22754 13.515 7.30273 13.335 7.45312 13.1846C7.60807 13.0342 7.78809 12.959 7.99316 12.959C8.2028 12.959 8.38281 13.0342 8.5332 13.1846C8.68815 13.335 8.76562 13.515 8.76562 13.7246ZM15.0273 8.80273H13.6807C13.4756 8.80273 13.2956 8.72754 13.1406 8.57715C12.9902 8.42676 12.915 8.24674 12.915 8.03711C12.915 7.83203 12.9902 7.6543 13.1406 7.50391C13.2956 7.34896 13.4756 7.27148 13.6807 7.27148H15.0273C15.2415 7.27148 15.4238 7.34896 15.5742 7.50391C15.7292 7.6543 15.8066 7.83203 15.8066 8.03711C15.8066 8.24674 15.7292 8.42676 15.5742 8.57715C15.4238 8.72754 15.2415 8.80273 15.0273 8.80273ZM0.958984 7.27148H2.30566C2.5153 7.27148 2.69531 7.34896 2.8457 7.50391C3.00065 7.6543 3.07812 7.83203 3.07812 8.03711C3.07812 8.24674 3.00065 8.42676 2.8457 8.57715C2.69531 8.72754 2.5153 8.80273 2.30566 8.80273H0.958984C0.753906 8.80273 0.573893 8.72754 0.418945 8.57715C0.268555 8.42676 0.193359 8.24674 0.193359 8.03711C0.193359 7.83203 0.268555 7.6543 0.418945 7.50391C0.573893 7.34896 0.753906 7.27148 0.958984 7.27148ZM3.42676 4.57129L2.46973 3.60742C2.32845 3.46615 2.25781 3.28613 2.25781 3.06738C2.26237 2.84863 2.33757 2.66634 2.4834 2.52051C2.63379 2.37467 2.81608 2.30404 3.03027 2.30859C3.24447 2.31315 3.4222 2.38607 3.56348 2.52734L4.52734 3.49121C4.66862 3.63704 4.73698 3.81934 4.73242 4.03809C4.73242 4.25228 4.65951 4.43229 4.51367 4.57812C4.36784 4.72396 4.18555 4.79688 3.9668 4.79688C3.7526 4.79232 3.57259 4.71712 3.42676 4.57129ZM11.4658 3.49121L12.4297 2.52734C12.5801 2.38151 12.7601 2.30859 12.9697 2.30859C13.1839 2.30404 13.3639 2.37467 13.5098 2.52051C13.6556 2.66634 13.7285 2.84863 13.7285 3.06738C13.7331 3.28613 13.6624 3.46615 13.5166 3.60742L12.5596 4.57129C12.4137 4.72168 12.2314 4.79688 12.0127 4.79688C11.7985 4.79688 11.6185 4.72396 11.4727 4.57812C11.3268 4.43229 11.2516 4.25228 11.2471 4.03809C11.2471 3.81934 11.32 3.63704 11.4658 3.49121ZM12.5527 11.5029L13.5166 12.46C13.6624 12.6058 13.7354 12.7858 13.7354 13C13.7399 13.2188 13.6693 13.401 13.5234 13.5469C13.3776 13.6927 13.1976 13.7656 12.9834 13.7656C12.7692 13.7702 12.5892 13.7018 12.4434 13.5605L11.4727 12.5967C11.3268 12.4463 11.2516 12.264 11.2471 12.0498C11.2471 11.8356 11.32 11.6556 11.4658 11.5098C11.6117 11.3639 11.7917 11.291 12.0059 11.291C12.2246 11.2865 12.4069 11.3571 12.5527 11.5029ZM2.47656 12.4531L3.43359 11.5029C3.57943 11.3571 3.75944 11.2865 3.97363 11.291C4.19238 11.291 4.37695 11.3639 4.52734 11.5098C4.66862 11.6556 4.73698 11.8356 4.73242 12.0498C4.73242 12.264 4.65951 12.4463 4.51367 12.5967L3.5498 13.5537C3.40853 13.6995 3.22852 13.7702 3.00977 13.7656C2.79102 13.7611 2.60872 13.6859 2.46289 13.54C2.32161 13.3942 2.25098 13.2142 2.25098 13C2.25098 12.7858 2.32617 12.6035 2.47656 12.4531ZM7.99316 4.3457C8.49902 4.3457 8.97298 4.44368 9.41504 4.63965C9.86165 4.83105 10.2536 5.09538 10.5908 5.43262C10.9326 5.76986 11.1992 6.16178 11.3906 6.6084C11.5866 7.05501 11.6846 7.53125 11.6846 8.03711C11.6846 8.54297 11.5866 9.01921 11.3906 9.46582C11.1992 9.91243 10.9326 10.3066 10.5908 10.6484C10.2536 10.9857 9.86165 11.25 9.41504 11.4414C8.97298 11.6328 8.49902 11.7285 7.99316 11.7285C7.4873 11.7285 7.01107 11.6328 6.56445 11.4414C6.1224 11.25 5.73047 10.9857 5.38867 10.6484C5.05143 10.3066 4.78483 9.91243 4.58887 9.46582C4.39746 9.01921 4.30176 8.54297 4.30176 8.03711C4.30176 7.53125 4.39746 7.05501 4.58887 6.6084C4.78483 6.16178 5.05143 5.76986 5.38867 5.43262C5.73047 5.09538 6.1224 4.83105 6.56445 4.63965C7.01107 4.44368 7.4873 4.3457 7.99316 4.3457ZM7.99316 5.82227C7.59212 5.82227 7.22298 5.92253 6.88574 6.12305C6.55306 6.32357 6.28418 6.59245 6.0791 6.92969C5.87858 7.26237 5.77832 7.63151 5.77832 8.03711C5.77832 8.44271 5.87858 8.81413 6.0791 9.15137C6.28418 9.48405 6.55306 9.75065 6.88574 9.95117C7.22298 10.1517 7.59212 10.252 7.99316 10.252C8.39876 10.252 8.7679 10.1517 9.10059 9.95117C9.43783 9.75065 9.70671 9.48405 9.90723 9.15137C10.1077 8.81413 10.208 8.44271 10.208 8.03711C10.208 7.63151 10.1077 7.26237 9.90723 6.92969C9.70671 6.59245 9.43783 6.32357 9.10059 6.12305C8.7679 5.92253 8.39876 5.82227 7.99316 5.82227Z"/>
</svg>
