<svg width="22" height="23" viewBox="0 0 22 23" fill="none" xmlns="http://www.w3.org/2000/svg">
<path fill-rule="evenodd" clip-rule="evenodd" d="M18.3438 0.973389C18.8586 0.973389 19.3734 1.04971 19.9126 1.29978C20.5589 1.60181 20.8999 2.07597 21.1403 2.42671C21.4546 2.94159 21.6204 3.53337 21.6194 4.1366C21.6216 4.73063 21.4718 5.31534 21.1841 5.83512L11.9762 21.6495C11.7737 21.999 11.3998 22.2136 10.9959 22.2123C10.5919 22.211 10.2195 21.9939 10.0193 21.643L0.981895 5.8611L0.973775 5.84811C0.767531 5.50711 0.447608 4.98099 0.390769 4.3006C0.286162 3.01941 0.987796 1.80784 2.15116 1.26081C2.76177 0.976636 3.38051 0.973389 3.77026 0.973389H18.3438ZM9.8699 3.23376H3.77026C3.36913 3.23376 3.21486 3.25811 3.10767 3.30845C2.79762 3.45204 2.61158 3.7753 2.64322 4.11549C2.65134 4.21292 2.69031 4.32172 2.92092 4.70169L2.93553 4.72605L9.8699 16.8349V3.23376ZM12.1305 16.895L19.2272 4.70656C19.3167 4.53 19.3624 4.33451 19.3604 4.1366C19.3604 3.96285 19.3247 3.81183 19.2435 3.65595C19.1902 3.57443 19.1305 3.49732 19.0648 3.42536C19.0347 3.39246 18.9983 3.36596 18.9577 3.34742C18.7647 3.26219 18.5545 3.22326 18.3438 3.23375H12.1305V16.895Z" fill="white"/>
</svg>
