<svg width="26" height="21" viewBox="0 0 26 21" fill="none" xmlns="http://www.w3.org/2000/svg">
<path fill-rule="evenodd" clip-rule="evenodd" d="M13.0232 10.4351C16.2209 10.4351 18.8933 9.89924 19.5465 9.18323C18.9919 8.57596 16.986 8.0977 14.4386 7.96685V9.47949C13.9826 9.50299 13.5085 9.51451 13.0227 9.51451C12.5369 9.51451 12.0628 9.50299 11.6058 9.47949V7.96685C9.05936 8.0977 7.05258 8.57596 6.49801 9.18323C7.15206 9.89924 9.82497 10.4351 13.0227 10.4351H13.0232ZM18.7046 3.3151V5.39816H14.4386V6.84261C17.4351 6.99697 19.6836 7.63188 19.7003 8.39166V9.97572C19.6836 10.7355 17.4351 11.369 14.4386 11.5238V15.0689H11.6063V11.5238C8.60985 11.3695 6.36228 10.7355 6.34554 9.97572V8.39166C6.36228 7.63188 8.60985 6.99697 11.6063 6.84261V5.39816H7.34033V3.3151H18.7051H18.7046ZM5.66267 0H20.6384C20.9963 0 21.3259 0.186604 21.5044 0.489779L25.8671 7.91524C26.093 8.30043 26.0261 8.78652 25.7034 9.09845L13.6944 20.7177C13.3049 21.0941 12.6792 21.0941 12.2906 20.7177L0.2964 9.11412C-0.0331809 8.79436 -0.0954711 8.29444 0.147647 7.90741L4.81152 0.466741C4.99328 0.177389 5.31589 0.000460498 5.66314 0.000460498L5.66267 0Z" fill="white"/>
</svg>
